<svg id="dc5f4843-b314-49e4-b515-5e5ac37aa99b" data-name="Calque 1" xmlns="http://www.w3.org/2000/svg" viewBox="0 0 507.79 313.31"><defs>
<style>
.d6bc9bbd-1021-4108-a039-a25e328ff372{fill:#010101}
.fa401e83-e0a3-4b1f-9741-8f4e58402981{fill:#ffffff}
.\36 ff8e77b-98d5-4647-a164-5d188cd2bdac{fill:none}
.\37 f531053-1a4e-4560-b88a-7ce6fe181d35{fill:#ef4a8b}
.\39 59d294e-0fa9-4426-8350-5f362541cd1b{fill:#fbf3a7}
.\34 16c5516-69ec-4a06-9366-27c05b2f50d6{fill:#e22572}
</style></defs><title>logo-pink</title><path class="d6bc9bbd-1021-4108-a039-a25e328ff372" d="M308.07 99.63l-30.28-53.25 46.89 21.22-2.98-61.43 25.25 44.33L386.66 0l-7.74 64.84 57.65-16.27-50.64 47.68 39.59 11.4-53.8 17.18-49.6 2.43-14.05-27.63z"/><path class="d6bc9bbd-1021-4108-a039-a25e328ff372" d="M206.73 262.94l5.27 19.14-7.65 47.22-16.87 9.7-31.33-18.25-2.89-9.28c11.6 3.89 20.2-1 20.2-1-5.87-4.05-17-3.37-17-3.37-19 2-26.92-12.45-26.92-12.45 13.83 8.53 32.72-7.19 32.72-7.19 15.41-10.58 24.67-9 24.67-9a16 16 0 0 0-11.41-.4c-11.75.81-16-6.9-16-6.9 9.46 4.54 21.49-4.05 21.49-4.05s7-5.39 14.84-6.07zM188.29 483.09s-6.16.24-16-5.05c0 0-9.69-6.49-17-2.68 0 0 3.16-6.18 12.44-5.82a12.64 12.64 0 0 0 9-.59s-7.27 1.44-19.66-6.52c0 0-15.27-11.94-26-4.88 0 0 5.89-11.6 20.92-10.46 0 0 8.8.27 13.33-3.06 0 0-10.31-6.5-19.36-3.15l5.48-4.52 27.53-24.16 10.29 16.3 7.16 37-3.73 15.21z" transform="translate(-17 -212.35)"/><path class="d6bc9bbd-1021-4108-a039-a25e328ff372" d="M113.52 338.84l-22.76 38.48 11.38 32.05 7.59 13.24 54.19-16.14 38.47-14 7.77 41.44 21.35 12.89 31.66 17.33 9.13 9.87 23.11 4.62 36.5 10.62 23.58-31.73 55.11-17.25 31.32 6.31 4.08-55.7-7.07-54.73L354.12 321l-29.32-23.13-22.64-19.46-70.09-1.19s-30.77 19.18-30.22 20.64S179.54 346 179.54 346z" transform="translate(-17 -212.35)"/><path class="d6bc9bbd-1021-4108-a039-a25e328ff372" d="M523.45 416.51l-2.5-5.67c-5.83-13.25-21.52-19.56-36.18-19.78a53.36 53.36 0 0 0 17.9-38.1c.32-9.36-1.79-23.55-15.41-32.13l16.35-41.26-7-3.58c-12.41-6.31-26.34-8.58-41.42-6.75a73.83 73.83 0 0 0-39.71 17.66c-12.38 11-19.21 25-19.74 40.44-.42 10.87 3.13 19.86 9.9 26.23l-18.95 46.78 6.3 2.54-37.29 4.51-3.19 89.6 42-5.1.49-14.8 8.3 13.74 37.49-4.56.51-13.28.26.25c7.27 6.67 17.23 10.18 28.54 10.18a58 58 0 0 0 7-.43 57.1 57.1 0 0 0 36-19.41c10.54-12.28 11.13-24.56 11.7-36.44l-1.35-10.64zm-128.72-12.93c2.28.92 4.67 1.72 7.13 2.46l-.35 10.74-8-13.67zM338.52 229.77a36.13 36.13 0 0 0-21.11-3.48c-13.22 1.61-26.84 10.65-29.92 25.16L281 231.66l-33 4-7.2 19.92a18.3 18.3 0 0 0-5.56-10.44c-5.09-4.69-12.73-6.35-23.35-5.05l-29.06 3.53-2.37 66.57-.55 15.54c-13.64-13.86-36.95-19.07-56.71-16.67-20 2.43-38.26 11.12-51.48 24.49-14 14.18-21.82 32.62-22.58 53.36-.67 19.39 5.41 35.56 17.61 46.74 10.88 10 25.9 15.24 43.05 15.24a89.51 89.51 0 0 0 10.81-.67 88 88 0 0 0 55.46-29.93l.57-.68-.8 22.44-2.8 78.82 42.18-5.13.79-21.7 5.78-.7a36.14 36.14 0 0 0 21.49-10A35.7 35.7 0 0 0 253 496.1c7.33 6.72 17.32 10.27 28.63 10.27a57.42 57.42 0 0 0 6.92-.43c27.37-3.33 47.12-23.9 48-50 .48-12.65-3.83-23.83-12.13-31.47-7.28-6.7-17-10.31-27.91-10.47l-23.24-34.5c11.53-7.92 16.67-18.29 17.22-33.69.51-13.9-3.49-24.81-11.72-32.38-5.21-4.78-12-8-20-9.54l2.53-.31 1.74-6.7.48-.06 1.46 6.31 38-4.61-.13-.41c1.55.14 3.11.21 4.66.21a48.14 48.14 0 0 0 5.81-.34c14.24-1.73 29.87-11.74 30.57-29.68.22-6.6-1.85-12-5.85-15.91l7.55-19zM110.74 393.28a17.85 17.85 0 0 1-1.92-9.11 29.08 29.08 0 0 1 2.62-10.9zm65.11-40.37l3.16-1.55v1.17zm68.78 78.8l11.48-1.4a52.88 52.88 0 0 0-6.4 7.8 26.15 26.15 0 0 0-5.08-6.4zm-11.83-8.27l1.06 2.2-1.12-.32zm60.57 35.38c-.18 3.92-2.57 6.72-6.11 7.15a3.31 3.31 0 0 1-2.35-.33c-.35-.32-.73-1.29-.66-3v-.11c.09-3.27 2.21-6.82 6.08-7.29a6.36 6.36 0 0 1 .74 0 2.18 2.18 0 0 1 1.41.38 4.42 4.42 0 0 1 .9 3.2z" transform="translate(-17 -212.35)"/><path class="d6bc9bbd-1021-4108-a039-a25e328ff372" d="M523.45 422.8l-2.5-5.67c-5.83-13.25-21.52-19.56-36.18-19.78a53.36 53.36 0 0 0 17.9-38.1c.32-9.36-1.79-23.55-15.41-32.13l18.55-46.18-2.2-1.36-7 2.71c-12.41-6.31-26.34-8.58-41.42-6.75a73.83 73.83 0 0 0-39.71 17.66c-12.38 11-19.21 25-19.74 40.44-.42 10.87 3.13 19.86 9.9 26.23l-18.95 46.78 6.3 2.54-37.27 4.53-3.19 89.61 42-5.1.47-14.85 8.3 13.74 37.49-4.56.47-13.28.26.25c7.27 6.67 17.23 10.18 28.54 10.18a58 58 0 0 0 7-.43 57.1 57.1 0 0 0 36-19.41c10.54-12.28 11.13-24.56 11.7-36.44l-1.35-10.64zm-128.72-12.93c2.28.92 4.67 1.72 7.13 2.46l-.35 10.74-8-13.67zM338.52 236.06a36.13 36.13 0 0 0-21.11-3.48c-13.22 1.61-26.84 10.65-29.92 25.16L281 238l-33 4-7.2 19.92a18.3 18.3 0 0 0-5.56-10.44c-5.09-4.69-12.73-6.35-23.35-5.05l-29.06 3.53-2.37 66.57-.53 15.47c-13.64-13.83-36.93-19-56.71-16.64-20 2.43-38.26 11.12-51.48 24.49-14 14.18-21.82 32.62-22.58 53.36-.67 19.39 5.42 35.56 17.61 46.79 10.88 10 25.9 15.24 43.05 15.24a89.51 89.51 0 0 0 10.81-.67 88 88 0 0 0 55.46-29.93l.57-.68-.8 22.44-2.8 78.82 42.2-5.22.79-21.7 5.78-.7a36.14 36.14 0 0 0 21.49-10 35.7 35.7 0 0 0 9.68 14.79c7.33 6.72 17.32 10.27 28.63 10.27a57.42 57.42 0 0 0 6.92-.43c27.37-3.33 47.12-23.9 48-50 .48-12.65-3.83-23.83-12.13-31.47-7.28-6.7-17-10.31-27.91-10.47l-23.24-34.5c11.53-7.92 16.67-18.29 17.22-33.69.5-13.88-3.45-24.76-11.71-32.35-5.21-4.78-12-8-20-9.54l2.53-.31 1.74-6.7.48-.06 1.46 6.31 38-4.61-.13-.41c1.55.14 3.11.21 4.66.21a48.14 48.14 0 0 0 5.81-.34c14.24-1.73 29.87-11.74 30.57-29.68.22-6.6-1.85-12-5.85-15.91l7.55-19zm-227.78 163.5a17.85 17.85 0 0 1-1.92-9.11 29.08 29.08 0 0 1 2.62-10.9zm65.11-40.37l3.16-1.55v1.17zM244.63 438l11.48-1.4a52.88 52.88 0 0 0-6.4 7.8 26.15 26.15 0 0 0-5.08-6.4zm-11.83-8.27l1.06 2.2-1.12-.32zm60.57 35.38c-.18 3.92-2.57 6.72-6.11 7.15a3.31 3.31 0 0 1-2.35-.33c-.35-.32-.73-1.29-.66-3v-.11c.09-3.27 2.21-6.82 6.08-7.29a6.36 6.36 0 0 1 .74 0 2.18 2.18 0 0 1 1.41.38 4.42 4.42 0 0 1 .9 3.2z" transform="translate(-17 -212.35)"/><path class="fa401e83-e0a3-4b1f-9741-8f4e58402981" d="M327.88 455.6c-.8 23.13-18.85 39.12-40.41 41.74s-38.6-9.11-37.8-32.23c.86-22.66 19-39.52 40.46-42.13s38.61 9.96 37.75 32.62zm-52.28 6.74c-.33 8.22 4.93 13.2 12.72 12.25s13.39-7.24 13.73-15.47c.21-7.64-4.58-13.43-12.74-12.44s-13.5 8.01-13.71 15.65zM364.1 415.12l24.66-3 21.64 37.15.75-.09c-.81-5.9-1.74-12-1.44-18.1l.71-21.59 24.57-3-2.57 72.06-24.57 3-21.21-35.11-.75.09a89.29 89.29 0 0 1 1.11 14.24l-.86 23.42-24.57 3zM516.16 426.13c-.57 11.77-.89 21.61-9.65 31.81a48.66 48.66 0 0 1-30.45 16.45c-21.57 2.62-38.47-8.83-37.67-32 .85-23.51 18.3-39.72 40.52-42.42 12.28-1.49 29 2.67 34.1 14.32l-24.34 11.9c-1.84-3.39-5.44-4.86-9.57-4.36-9.19 1.12-14.52 9.76-14.88 18.46-.27 7.93 4.37 14.79 12.71 13.78 4-.49 9.24-3 10.6-7.57L475.9 448l.6-17zM191.26 251.34L213 248.7c9.93-1.21 20 0 19.56 12.06-.13 4.57-2.52 9.35-7.11 11.36v.41c5.55 1.33 8.9 5.07 8.69 11.3-.42 10.75-10.32 15.62-19.31 16.71l-25.38 3.09zM207.17 289l2.11-.26c3.06-.37 7.48-1 7.58-5.27s-4.6-3.72-7.59-3.36l-1.84.22zm2.35-19.9c2.72-.33 5.82-1 5.93-4.59.15-3.88-3.29-3.19-6-2.86l-1.29.16-.33 7.49zM254.41 295.69l-19.73 2.4 19.69-54.46 20.63-2.5 16.44 50.06-19.73 2.4-1.46-6.31-14.1 1.72zm13-20.43l-1.85-9c-.47-2.15-.67-4.4-.94-6.59l-.68.08-4 16.37zM299 271.52l.91.65c3.24 2.23 7.17 3.89 11.46 3.37 1.84-.22 4.81-1.34 4.87-3.7s-2.35-2.27-4-2.41l-3.76-.23c-7.23-.43-13.2-4.06-12.88-12.24.43-12.41 11.78-20.7 22.94-22.05a27.38 27.38 0 0 1 16.13 2.6l-5.55 14a16.83 16.83 0 0 0-10.68-2.64c-1.63.2-4 1.11-4.09 3.26 0 1.94 2.24 1.94 3.64 2.11l4.2.46c7.83.84 13.38 4.45 13.08 13.32-.49 12.49-11.86 20-23 21.36a41.77 41.77 0 0 1-19.58-2.38zM185.32 360.49c-.93 19.3-1.47 35.44-15.81 52.16-12.67 15.11-31.93 24.79-49.92 27-35.36 4.3-63.08-14.49-61.76-52.4 1.4-38.55 30-65.12 66.43-69.54 20.14-2.45 47.49 4.37 55.9 23.47l-39.91 19.52c-3-5.56-8.92-8-15.69-7.14-15.07 1.83-23.8 16-24.4 30.27-.45 13 7.16 24.25 20.84 22.58 6.61-.8 15.15-5 17.37-12.41l-19.06 2.32 1-27.89zM184.67 437l32.54-4c16.5-2 28.41 5.11 27.82 23-.59 14.73-9.9 25-24.25 26.74l-13.13 1.6-.79 21.66-24.76 3zm23.63 29.2l2.53-.31c4.5-.55 9.38-1.9 9.62-7.74.17-5.63-5-5.29-9.24-4.78l-2.44.3z" transform="translate(-17 -212.35)"/><path class="6ff8e77b-98d5-4647-a164-5d188cd2bdac" d="M277.99 120.05h.85v16.94h-.85z"/><path class="d6bc9bbd-1021-4108-a039-a25e328ff372" d="M375.52 498.31c-.36-3.18-3.33-5.79-8-7.57V490l-.1.1c-.63-2.39-3.21-4.33-7-5.59v-.23c-.44-3.86-8.14-6.15-17.18-5.11-8.37 1-14.95 4.42-15.55 8-4.91 2.31-8 5.3-8.21 8.3v1c-3.71 2.58-5.85 5.52-5.76 8.45v5.1a5.82 5.82 0 0 0 0 1.2c.83 7.29 15.36 11.61 32.45 9.65 16.74-1.92 29.72-9.15 29.45-16.3l-.06-4.68a5.88 5.88 0 0 0-.04-1.58z" transform="translate(-17 -212.35)"/><path class="d6bc9bbd-1021-4108-a039-a25e328ff372" d="M338 525.66c-14.48 0-27.53-4.36-28.63-14a10 10 0 0 1 0-1.86v-4.91c-.08-2.67.94-6.68 5.92-10.75.68-3.81 3.8-7.33 8.94-10.1 2.68-5.17 10.82-8.31 18.52-9.2 8.77-1 18.46.66 21.25 6.38 4.15 1.81 6.17 4.18 7.13 6.26 6.94 3.27 8.49 7.77 8.78 10.29a10.13 10.13 0 0 1 0 2.31l.06 4.37c.42 11-16.43 18.74-33.29 20.67a76 76 0 0 1-8.68.54zm-14.26-29.73v.51a4.34 4.34 0 0 1-1.86 3.57c-2.92 2-3.94 3.8-3.91 4.77v5.62a1.54 1.54 0 0 0 0 .31c.36 3.13 11.14 7.73 27.65 5.84 16.79-1.92 25.73-8.82 25.61-11.83l-.07-4.79a4.35 4.35 0 0 1 0-.71 1.58 1.58 0 0 0 0-.41c-.11-1-1.55-2.61-5.22-4a4.34 4.34 0 0 1-2.69-3.11c0-.11-.05-.22-.07-.34v-.1c-.09-.34-1.05-1.54-4.21-2.58a4.33 4.33 0 0 1-2.94-3.54c-1-.9-5.5-2.4-12.39-1.61-7.2.83-11.23 3.49-11.78 4.51a4.33 4.33 0 0 1-2.41 3.1c-4.24 2-5.69 4-5.73 4.64.01.02 0 .08 0 .14zm8.13-7.88zm0-.15z" transform="translate(-17 -212.35)"/><path class="d6bc9bbd-1021-4108-a039-a25e328ff372" d="M375.54 504.66l-.09-6.66-2.74 1.5c-5.14-4.32-16.64-6.46-29.64-5-11.73 1.34-21.62 5.3-26.39 10l-3.06.36v5.18a5.81 5.81 0 0 0 0 1.2c.83 7.29 15.36 11.61 32.45 9.65 16.77-1.89 29.75-9.08 29.47-16.23z" transform="translate(-17 -212.35)"/><ellipse class="7f531053-1a4e-4560-b88a-7ce6fe181d35" cx="344.58" cy="501.96" rx="31.14" ry="13.28" transform="rotate(-6.53 -1524.806 545.074)"/><path class="d6bc9bbd-1021-4108-a039-a25e328ff372" d="M367.56 497.18l-.07-7-2.49 2.54c-4.14-3.18-12.88-4.74-22.73-3.61-8.74 1-16.13 3.87-20 7.32l-2.9-.85v6.55c.65 5.67 12 9 25.25 7.51 12.84-1.47 22.81-7 22.89-12.44z" transform="translate(-17 -212.35)"/><ellipse class="7f531053-1a4e-4560-b88a-7ce6fe181d35" cx="343.47" cy="493.62" rx="24.23" ry="10.33" transform="rotate(-6.53 -1525.914 536.746)"/><path class="d6bc9bbd-1021-4108-a039-a25e328ff372" d="M360.36 488.64v-3.65l-1.46.8c-2.72-2.29-8.81-3.43-15.69-2.64-5.95.68-11 2.63-13.62 5l-2-.56V492c.44 3.86 8.14 6.15 17.18 5.11 8.74-1 15.53-4.74 15.58-8.47z" transform="translate(-17 -212.35)"/><ellipse class="7f531053-1a4e-4560-b88a-7ce6fe181d35" cx="343.96" cy="486.29" rx="16.49" ry="7.03" transform="rotate(-6.53 -1525.406 529.388)"/><path class="959d294e-0fa9-4426-8350-5f362541cd1b" d="M358 381.69h-.33l-20.37 2.72a2.17 2.17 0 0 0-1.88 2.06l-4 95.59a2.17 2.17 0 0 0 0 .35v.29c.37 3.24 4.27 5.25 10.17 5.25a25.71 25.71 0 0 0 2.91-.17c5.52-.63 11.4-3.15 11.6-7.23v-.18l4-96.34v-.2a2.17 2.17 0 0 0-2.1-2.14z" transform="translate(-17 -212.35)"/><path class="d6bc9bbd-1021-4108-a039-a25e328ff372" d="M340.71 489c-6.93 0-13.18-2.1-13.71-6.72a3.79 3.79 0 0 1 0-.51 2.15 2.15 0 0 1 1.93-2.33 2.17 2.17 0 0 1 2.38 2.26v.17c.16 1.37 5.22 3.48 13 2.6s12.08-4.1 12-5.49a2.17 2.17 0 0 1 4.34-.18 2.34 2.34 0 0 1 0 .35c-.15 5.15-8 8.73-15.89 9.63a36.26 36.26 0 0 1-4.05.22zM327 415.84a41.25 41.25 0 0 0 36 .37l7.14-17.94-47.91-2.16z" transform="translate(-17 -212.35)"/><path class="fa401e83-e0a3-4b1f-9741-8f4e58402981" d="M190 311.56l50.89-6.19c26.14-3.18 47.93 5.41 46.87 35.18-.65 17.87-7.76 26.22-23.56 33.45v.94a25.33 25.33 0 0 1 6.84 6.19l23.8 35.33-48.58 5.91-17.13-35.67-.77.09L227 424.7l-41.2 5zm39.45 47.31l2.92-.35c6.92-.84 13.86-2.78 14.2-11.55.3-9.09-6-9.41-13.21-8.54l-3.23.39zM412.13 360.58l2.05 1.47c7.32 5 16.2 8.8 25.89 7.62 4.15-.5 10.86-3 11-8.36.29-5.34-5.3-5.13-9.09-5.45l-8.49-.53c-16.34-1-29.82-9.17-29.11-27.66 1-28 26.61-46.76 51.82-49.83 13.22-1.61 25.3.2 36.44 5.87l-12.54 31.63c-7.06-4.13-15.06-7.06-24.13-6-3.69.45-9.06 2.5-9.25 7.36-.09 4.38 5.06 4.38 8.23 4.77l9.49 1c17.7 1.91 30.24 10.05 29.56 30.11-1.09 28.22-26.8 45.23-51.86 48.27-14.61 1.77-31.39-.24-44.18-5.39z" transform="translate(-17 -212.35)"/><path class="d6bc9bbd-1021-4108-a039-a25e328ff372" d="M150 467.5s-15.33-12.15-28.44 7.66c-.01 0 15.02-11.63 28.44-7.66zM173.21 278.15a58 58 0 0 0 8.41-.42s5.15-.44 7.3 2.34l-.49-3.68-13.33-3.91-2.92 2.83z" transform="translate(-17 -212.35)"/><circle class="fa401e83-e0a3-4b1f-9741-8f4e58402981" cx="306.99" cy="111.18" r="10.33"/><path class="7f531053-1a4e-4560-b88a-7ce6fe181d35" d="M346.49 412.19a59.74 59.74 0 1 1 59.74-59.74 59.81 59.81 0 0 1-59.74 59.74z" transform="translate(-17 -212.35)"/><path class="d6bc9bbd-1021-4108-a039-a25e328ff372" d="M346.49 296a56.26 56.26 0 1 1-56.26 56.26A56.26 56.26 0 0 1 346.49 296m0-7a63.22 63.22 0 1 0 63.23 63.22A63.3 63.3 0 0 0 346.49 289zM55.48 357.65s-9.4 35.1-30.72 37.42c0 0 15.94 7.28 28.31-4.1L57 370.11z" transform="translate(-17 -212.35)"/><path class="d6bc9bbd-1021-4108-a039-a25e328ff372" d="M49.14 393.93s-8.71 8.51-14.67 7.15a10.8 10.8 0 0 0 8.4.15s5.94-1.61 6.73 3.52l4.24-1 .81-11.38-4.74-.81zM26.21 387.54s-4.06 1.76-9.21-1.35c0 0 3.25 6.23 9.21 1.35zM142.82 288.15s-15.32.73-21.26-4.39c0 0 .56 6.21 6.75 7.16a23.17 23.17 0 0 0 14.51-2.77z" transform="translate(-17 -212.35)"/><path class="d6bc9bbd-1021-4108-a039-a25e328ff372" d="M331.59 44.42l-11.2-8.44-2.18 7 3.63 17.15 9.75 3.8V44.42z"/><path class="416c5516-69ec-4a06-9366-27c05b2f50d6" d="M387.51 314.57a55.76 55.76 0 0 1-88.39 66.94 55.77 55.77 0 1 0 88.39-66.94z" transform="translate(-17 -212.35)"/><circle class="fa401e83-e0a3-4b1f-9741-8f4e58402981" cx="307.36" cy="112.56" r="10.29"/></svg>