<?xml version="1.0" encoding="utf-8"?>
<!-- Generator: Adobe Illustrator 12.0.0, SVG Export Plug-In . SVG Version: 6.00 Build 51448)  -->
<!DOCTYPE svg PUBLIC "-//W3C//DTD SVG 1.1//EN" "http://www.w3.org/Graphics/SVG/1.1/DTD/svg11.dtd" [
	<!ENTITY ns_svg "http://www.w3.org/2000/svg">
	<!ENTITY ns_xlink "http://www.w3.org/1999/xlink">
]>
<svg  version="1.1" id="Layer_1" xmlns="&ns_svg;" xmlns:xlink="&ns_xlink;" width="193.138" height="72.813"
	 viewBox="0 0 193.138 72.813" overflow="visible" enable-background="new 0 0 193.138 72.813" xml:space="preserve">
<g>
	<path d="M0,71.625L27.538,0h10.265l29.231,71.625H56.243l-8.264-21.688H17.877l-7.821,21.688H0z M20.623,42.25h24.365L37.47,22.389
		c-2.244-6.035-3.935-10.998-5.07-14.889c-0.952,4.631-2.24,9.214-3.865,13.751L20.623,42.25z"/>
	<path d="M73.317,71.625V19.75h7.938v7.826c2.017-3.67,3.879-6.09,5.587-7.26c1.707-1.169,3.586-1.754,5.636-1.754
		c2.96,0,5.969,0.947,9.027,2.84l-3.072,8.14c-2.141-1.277-4.28-1.917-6.421-1.917c-1.914,0-3.633,0.579-5.156,1.735
		c-1.524,1.157-2.611,2.763-3.262,4.815c-0.977,3.129-1.464,6.552-1.464,10.267v27.183H73.317z"/>
	<path d="M106.743,10.125V0h8.813v10.125H106.743z M106.743,71.625V19.75h8.813v51.875H106.743z"/>
	<path d="M162.772,65.25c-3.258,2.766-6.392,4.717-9.401,5.855c-3.011,1.138-6.241,1.707-9.69,1.707
		c-5.695,0-10.073-1.393-13.132-4.18c-3.06-2.787-4.589-6.348-4.589-10.683c0-2.542,0.577-4.864,1.732-6.967
		c1.155-2.102,2.669-3.788,4.54-5.06s3.979-2.232,6.322-2.885c1.725-0.456,4.328-0.896,7.811-1.32
		c7.095-0.848,12.318-1.857,15.671-3.031c0.032-1.207,0.049-1.975,0.049-2.301c0-3.59-0.83-6.119-2.488-7.588
		c-2.244-1.99-5.577-2.986-10-2.986c-4.13,0-7.179,0.726-9.146,2.176c-1.968,1.45-3.423,4.017-4.366,7.699L127.46,34.5
		c0.78-3.672,2.065-6.637,3.855-8.895c1.789-2.258,4.376-3.996,7.76-5.215s7.305-1.828,11.763-1.828
		c4.425,0,8.021,0.521,10.786,1.56s4.799,2.347,6.101,3.922c1.302,1.576,2.213,3.565,2.733,5.97c0.293,1.494,0.439,4.2,0.439,8.116
		v11.75c0,8.193,0.188,13.37,0.567,15.53c0.378,2.161,1.126,4.232,2.245,6.215h-9.188C163.614,69.809,163.031,67.684,162.772,65.25z
		 M162.022,45.563c-3.188,1.307-7.969,2.416-14.344,3.33c-3.611,0.523-6.164,1.111-7.66,1.764c-1.496,0.653-2.651,1.608-3.464,2.865
		c-0.813,1.258-1.22,2.653-1.22,4.188c0,2.352,0.887,4.311,2.66,5.878s4.368,2.351,7.786,2.351c3.384,0,6.394-0.742,9.03-2.227
		c2.636-1.484,4.572-3.518,5.809-6.098c0.943-1.992,1.416-4.931,1.416-8.817L162.022,45.563z"/>
	<path d="M184.325,71.625V0h8.813v71.625H184.325z"/>
</g>
</svg>
