<?xml version="1.0" encoding="iso-8859-1"?>
<!-- Generator: Adobe Illustrator 19.0.0, SVG Export Plug-In . SVG Version: 6.00 Build 0)  -->
<svg version="1.1" id="Capa_1" xmlns="http://www.w3.org/2000/svg" xmlns:xlink="http://www.w3.org/1999/xlink" x="0px" y="0px"
	 viewBox="0 0 426.667 426.667" style="enable-background:new 0 0 426.667 426.667;" xml:space="preserve">
<g>
	<g>
		<path d="M213.333,0C95.467,0,0,95.467,0,213.333s95.467,213.333,213.333,213.333S426.667,331.2,426.667,213.333S331.2,0,213.333,0
			z M192,382.507c-84.16-10.453-149.333-82.133-149.333-169.173S107.84,54.613,192,44.16V382.507z M234.667,44.16
			c21.973,2.773,42.667,9.6,61.227,19.84h-61.227V44.16z M234.667,106.667h111.787c5.333,6.72,10.24,13.867,14.507,21.333H234.667
			V106.667z M234.667,170.667h143.787c1.813,6.933,3.2,14.08,4.16,21.333H234.667V170.667z M234.667,382.507v-19.84h61.227
			C277.333,372.907,256.64,379.733,234.667,382.507z M346.453,320H234.667v-21.333H360.96
			C356.693,306.133,351.787,313.28,346.453,320z M378.453,256H234.667v-21.333h147.84C381.653,241.92,380.16,249.067,378.453,256z"
			/>
	</g>
</g>
<g>
</g>
<g>
</g>
<g>
</g>
<g>
</g>
<g>
</g>
<g>
</g>
<g>
</g>
<g>
</g>
<g>
</g>
<g>
</g>
<g>
</g>
<g>
</g>
<g>
</g>
<g>
</g>
<g>
</g>
</svg>
