<svg version="1.1" viewBox="0.0 0.0 364.83989501312334 224.38845144356955" fill="none" stroke="none" stroke-linecap="square" stroke-miterlimit="10" xmlns:xlink="http://www.w3.org/1999/xlink" xmlns="http://www.w3.org/2000/svg"><clipPath id="p.0"><path d="m0 0l364.8399 0l0 224.38846l-364.8399 0l0 -224.38846z" clip-rule="nonzero"/></clipPath><g clip-path="url(#p.0)"><path fill="#000000" fill-opacity="0.0" d="m0 0l364.8399 0l0 224.38846l-364.8399 0z" fill-rule="evenodd"/><path fill="#000000" fill-opacity="0.0" d="m17.380577 78.05249l330.07874 0l0 68.28346l-330.07874 0z" fill-rule="evenodd"/><path fill="#000000" d="m154.83093 104.97249q-0.546875 0 -0.859375 -0.296875q-0.296875 -0.296875 -0.296875 -0.84375l0 -10.875q0 -0.546875 0.296875 -0.84375q0.3125 -0.296875 0.859375 -0.296875l6.734375 0q0.53125 0 0.828125 0.25q0.3125 0.234375 0.3125 0.6875q0 0.46875 -0.3125 0.71875q-0.296875 0.25 -0.828125 0.25l-5.546875 0l0 3.625l5.171875 0q0.546875 0 0.84375 0.25q0.296875 0.234375 0.296875 0.703125q0 0.4375 -0.296875 0.6875q-0.296875 0.234375 -0.84375 0.234375l-5.171875 0l0 3.84375l5.546875 0q0.53125 0 0.828125 0.25q0.3125 0.25 0.3125 0.71875q0 0.453125 -0.3125 0.703125q-0.296875 0.234375 -0.828125 0.234375l-6.734375 0zm12.926041 0.15625q-2.03125 0 -3.28125 -0.8125q-0.59375 -0.34375 -0.59375 -1.0q0 -0.375 0.203125 -0.609375q0.203125 -0.234375 0.5 -0.234375q0.3125 0 0.875 0.296875q0.59375 0.28125 1.09375 0.4375q0.5 0.140625 1.265625 0.140625q0.78125 0 1.21875 -0.25q0.4375 -0.265625 0.4375 -0.734375q0 -0.3125 -0.1875 -0.5q-0.171875 -0.1875 -0.625 -0.34375q-0.453125 -0.171875 -1.390625 -0.375q-1.65625 -0.328125 -2.375 -0.9375q-0.71875 -0.625 -0.71875 -1.703125q0 -0.828125 0.484375 -1.484375q0.484375 -0.671875 1.328125 -1.03125q0.84375 -0.359375 1.9375 -0.359375q0.78125 0 1.5 0.203125q0.734375 0.1875 1.3125 0.5625q0.59375 0.375 0.59375 0.984375q0 0.375 -0.203125 0.625q-0.203125 0.25 -0.5 0.25q-0.203125 0 -0.40625 -0.078125q-0.1875 -0.09375 -0.484375 -0.25q-0.546875 -0.28125 -0.9375 -0.421875q-0.390625 -0.140625 -0.96875 -0.140625q-0.6875 0 -1.09375 0.28125q-0.40625 0.28125 -0.40625 0.765625q0 0.46875 0.40625 0.71875q0.421875 0.234375 1.59375 0.46875q1.25 0.265625 1.953125 0.609375q0.71875 0.328125 1.015625 0.828125q0.3125 0.5 0.3125 1.28125q0 1.28125 -1.0625 2.046875q-1.046875 0.765625 -2.796875 0.765625zm10.985779 -9.5q1.171875 0 2.09375 0.59375q0.9375 0.59375 1.4375 1.6875q0.515625 1.09375 0.515625 2.515625q0 1.40625 -0.515625 2.484375q-0.5 1.0625 -1.421875 1.640625q-0.90625 0.578125 -2.109375 0.578125q-0.96875 0 -1.734375 -0.40625q-0.765625 -0.421875 -1.171875 -1.15625l0 3.8125q0 0.484375 -0.328125 0.765625q-0.3125 0.28125 -0.828125 0.28125q-0.53125 0 -0.859375 -0.296875q-0.3125 -0.296875 -0.3125 -0.78125l0 -10.578125q0 -0.515625 0.296875 -0.8125q0.3125 -0.296875 0.828125 -0.296875q0.53125 0 0.84375 0.296875q0.3125 0.296875 0.3125 0.8125l0 0.453125q0.421875 -0.75 1.1875 -1.171875q0.78125 -0.421875 1.765625 -0.421875zm-0.609375 7.6875q1.09375 0 1.703125 -0.75q0.625 -0.765625 0.625 -2.140625q0 -1.421875 -0.625 -2.203125q-0.609375 -0.78125 -1.703125 -0.78125q-1.125 0 -1.734375 0.765625q-0.609375 0.765625 -0.609375 2.171875q0 1.40625 0.609375 2.171875q0.609375 0.765625 1.734375 0.765625zm10.540527 -7.6875q1.90625 0 2.828125 0.9375q0.921875 0.9375 0.921875 2.859375l0 4.5625q0 0.5 -0.296875 0.796875q-0.296875 0.28125 -0.828125 0.28125q-0.484375 0 -0.796875 -0.296875q-0.296875 -0.296875 -0.296875 -0.78125l0 -0.421875q-0.328125 0.734375 -1.015625 1.15625q-0.671875 0.40625 -1.5625 0.40625q-0.921875 0 -1.671875 -0.375q-0.734375 -0.375 -1.171875 -1.03125q-0.421875 -0.65625 -0.421875 -1.453125q0 -1.015625 0.515625 -1.59375q0.515625 -0.578125 1.671875 -0.828125q1.15625 -0.265625 3.1875 -0.265625l0.46875 0l0 -0.4375q0 -0.90625 -0.40625 -1.328125q-0.390625 -0.421875 -1.265625 -0.421875q-0.53125 0 -1.09375 0.171875q-0.5625 0.15625 -1.328125 0.453125q-0.484375 0.234375 -0.703125 0.234375q-0.34375 0 -0.5625 -0.234375q-0.203125 -0.25 -0.203125 -0.640625q0 -0.3125 0.15625 -0.546875q0.15625 -0.234375 0.53125 -0.4375q0.65625 -0.359375 1.5625 -0.5625q0.90625 -0.203125 1.78125 -0.203125zm-0.578125 7.8125q0.921875 0 1.515625 -0.625q0.59375 -0.625 0.59375 -1.609375l0 -0.390625l-0.34375 0q-1.25 0 -1.9375 0.109375q-0.6875 0.109375 -0.984375 0.390625q-0.296875 0.28125 -0.296875 0.765625q0 0.59375 0.40625 0.984375q0.421875 0.375 1.046875 0.375zm10.746246 1.6875q-1.359375 0 -2.40625 -0.578125q-1.03125 -0.578125 -1.59375 -1.640625q-0.5625 -1.078125 -0.5625 -2.484375q0 -1.421875 0.59375 -2.515625q0.59375 -1.09375 1.65625 -1.6875q1.0625 -0.59375 2.4375 -0.59375q0.734375 0 1.46875 0.203125q0.734375 0.203125 1.296875 0.5625q0.59375 0.390625 0.59375 0.984375q0 0.40625 -0.203125 0.671875q-0.1875 0.25 -0.5 0.25q-0.21875 0 -0.4375 -0.09375q-0.21875 -0.09375 -0.453125 -0.234375q-0.40625 -0.234375 -0.78125 -0.375q-0.375 -0.140625 -0.859375 -0.140625q-1.15625 0 -1.78125 0.765625q-0.625 0.75 -0.625 2.15625q0 1.40625 0.625 2.171875q0.625 0.75 1.78125 0.75q0.46875 0 0.828125 -0.140625q0.375 -0.140625 0.8125 -0.390625q0.28125 -0.171875 0.484375 -0.25q0.21875 -0.078125 0.421875 -0.078125q0.296875 0 0.5 0.265625q0.203125 0.25 0.203125 0.640625q0 0.3125 -0.140625 0.546875q-0.140625 0.234375 -0.453125 0.421875q-0.578125 0.375 -1.34375 0.59375q-0.765625 0.21875 -1.5625 0.21875zm12.276123 -2.65625q0.3125 0 0.5 0.25q0.203125 0.234375 0.203125 0.640625q0 0.578125 -0.6875 0.96875q-0.640625 0.359375 -1.4375 0.578125q-0.796875 0.21875 -1.53125 0.21875q-2.203125 0 -3.5 -1.265625q-1.28125 -1.28125 -1.28125 -3.484375q0 -1.390625 0.5625 -2.46875q0.5625 -1.09375 1.578125 -1.6875q1.015625 -0.59375 2.3125 -0.59375q1.21875 0 2.125 0.546875q0.921875 0.53125 1.421875 1.53125q0.515625 0.984375 0.515625 2.328125q0 0.796875 -0.71875 0.796875l-5.5 0q0.109375 1.28125 0.71875 1.890625q0.625 0.609375 1.796875 0.609375q0.609375 0 1.0625 -0.140625q0.453125 -0.15625 1.03125 -0.421875q0.5625 -0.296875 0.828125 -0.296875zm-3.234375 -5.203125q-0.953125 0 -1.53125 0.59375q-0.5625 0.59375 -0.671875 1.71875l4.21875 0q-0.03125 -1.140625 -0.5625 -1.71875q-0.515625 -0.59375 -1.453125 -0.59375z" fill-rule="nonzero"/><path fill="#000000" d="m166.2019 126.97249q-0.546875 0 -0.859375 -0.296875q-0.296875 -0.296875 -0.296875 -0.84375l0 -10.875q0 -0.546875 0.296875 -0.84375q0.3125 -0.296875 0.859375 -0.296875l3.6875 0q3.234375 0 5.015625 1.734375q1.78125 1.71875 1.78125 4.84375q0 3.125 -1.78125 4.859375q-1.78125 1.71875 -5.015625 1.71875l-3.6875 0zm3.546875 -1.953125q4.53125 0 4.53125 -4.625q0 -4.609375 -4.53125 -4.609375l-2.296875 0l0 9.234375l2.296875 0zm17.566818 -10.875q0.34375 -0.421875 0.796875 -0.421875q0.4375 0 0.765625 0.328125q0.34375 0.328125 0.34375 0.78125q0 0.375 -0.28125 0.703125l-4.234375 5.171875l0 5.171875q0 0.578125 -0.34375 0.890625q-0.328125 0.3125 -0.84375 0.3125q-0.546875 0 -0.890625 -0.3125q-0.328125 -0.3125 -0.328125 -0.890625l0 -5.171875l-4.234375 -5.171875q-0.28125 -0.328125 -0.28125 -0.703125q0 -0.453125 0.328125 -0.78125q0.34375 -0.328125 0.765625 -0.328125q0.46875 0 0.8125 0.421875l3.828125 4.734375l3.796875 -4.734375zm7.9665985 13.0q-1.4375 0 -2.71875 -0.375q-1.265625 -0.390625 -2.078125 -1.046875q-0.421875 -0.3125 -0.421875 -0.890625q0 -0.390625 0.234375 -0.671875q0.234375 -0.296875 0.546875 -0.296875q0.328125 0 0.765625 0.25q0.796875 0.578125 1.671875 0.84375q0.875 0.265625 1.9375 0.265625q1.375 0 2.09375 -0.46875q0.734375 -0.484375 0.734375 -1.40625q0 -0.703125 -0.6875 -1.078125q-0.671875 -0.390625 -2.265625 -0.75q-1.640625 -0.34375 -2.671875 -0.8125q-1.015625 -0.46875 -1.546875 -1.1875q-0.515625 -0.734375 -0.515625 -1.859375q0 -1.15625 0.640625 -2.0625q0.65625 -0.921875 1.828125 -1.4375q1.171875 -0.515625 2.625 -0.515625q2.671875 0 4.34375 1.421875q0.25 0.203125 0.34375 0.40625q0.109375 0.1875 0.109375 0.5q0 0.390625 -0.234375 0.6875q-0.234375 0.28125 -0.546875 0.28125q-0.1875 0 -0.359375 -0.0625q-0.15625 -0.0625 -0.40625 -0.203125q-0.765625 -0.5625 -1.484375 -0.828125q-0.71875 -0.28125 -1.765625 -0.28125q-1.265625 0 -2.015625 0.515625q-0.734375 0.515625 -0.734375 1.4375q0 0.765625 0.65625 1.171875q0.65625 0.40625 2.21875 0.765625q1.65625 0.375 2.6875 0.828125q1.046875 0.453125 1.59375 1.171875q0.546875 0.703125 0.546875 1.765625q0 1.15625 -0.640625 2.046875q-0.640625 0.875 -1.8125 1.375q-1.15625 0.5 -2.671875 0.5z" fill-rule="nonzero"/></g></svg>